<?xml version="1.0" encoding="iso-8859-1"?>
<!-- Generator: Adobe Illustrator 19.0.0, SVG Export Plug-In . SVG Version: 6.00 Build 0)  -->
<svg version="1.1" id="Layer_1" xmlns="http://www.w3.org/2000/svg" xmlns:xlink="http://www.w3.org/1999/xlink" x="0px" y="0px"
	 viewBox="0 0 505 505" style="enable-background:new 0 0 505 505;" xml:space="preserve">
<circle style="fill:#324A5E;" cx="252.5" cy="252.5" r="252.5"/>
<polygon style="fill:#FFFFFF;" points="325.6,86.1 325.6,139.7 379.1,139.7 379.1,418.9 125.9,418.9 125.9,86.1 "/>
<polygon style="fill:#E6E9EE;" points="325.6,86.1 379.1,139.7 325.6,139.7 "/>
<path style="fill:#54C0EB;" d="M252.5,345c-40.1,0-72.8-32.6-72.8-72.8c0-40.1,32.6-72.8,72.8-72.8c40.1,0,72.8,32.6,72.8,72.8
	S292.6,345,252.5,345z M252.5,218.5c-29.7,0-53.8,24.1-53.8,53.8c0,29.7,24.1,53.8,53.8,53.8s53.8-24.1,53.8-53.8
	S282.2,218.5,252.5,218.5z"/>
<g>
	<path style="fill:#84DBFF;" d="M335,281.8h-38.6c-5.2,0-9.5-4.3-9.5-9.5s4.2-9.5,9.5-9.5H335c5.2,0,9.5,4.3,9.5,9.5
		S340.2,281.8,335,281.8z"/>
	<path style="fill:#84DBFF;" d="M208.6,281.8H170c-5.2,0-9.5-4.3-9.5-9.5s4.3-9.5,9.5-9.5h38.6c5.2,0,9.5,4.3,9.5,9.5
		S213.9,281.8,208.6,281.8z"/>
	<path style="fill:#84DBFF;" d="M252.5,364.2c-5.2,0-9.5-4.3-9.5-9.5v-38.6c0-5.2,4.2-9.5,9.5-9.5c5.3,0,9.5,4.3,9.5,9.5v38.6
		C262,360,257.7,364.2,252.5,364.2z"/>
	<path style="fill:#84DBFF;" d="M252.5,237.9c-5.2,0-9.5-4.3-9.5-9.5v-38.6c0-5.2,4.2-9.5,9.5-9.5c5.2,0,9.5,4.3,9.5,9.5v38.6
		C262,233.6,257.8,237.9,252.5,237.9z"/>
</g>
<circle style="fill:#2C9984;" cx="252.5" cy="272.3" r="9.6"/>
<g>
</g>
<g>
</g>
<g>
</g>
<g>
</g>
<g>
</g>
<g>
</g>
<g>
</g>
<g>
</g>
<g>
</g>
<g>
</g>
<g>
</g>
<g>
</g>
<g>
</g>
<g>
</g>
<g>
</g>
</svg>
